<svg width="151" height="21" viewBox="0 0 151 21" fill="none" xmlns="http://www.w3.org/2000/svg">
<path id="memory" fill-rule="evenodd" clip-rule="evenodd" d="M122.52 15.8523V8.08662C122.52 6.86483 122.913 5.98472 123.7 5.4463C124.487 4.90789 125.613 4.63868 127.08 4.63868C127.373 4.63868 127.64 4.64385 127.88 4.65421C128.12 4.66456 128.4 4.69045 128.72 4.73186V0.0103542C127.2 -0.0517709 125.907 0.165667 124.84 0.662668C123.773 1.15967 122.933 2.02942 122.32 3.27192L121.24 0.44523H116.44V15.8523H122.52ZM6.08 7.80706V15.8523H0V0.445232H5.32L6.08 2.49536C6.53333 1.91553 7.28 1.3564 8.32 0.817983C9.36 0.279565 10.6133 0.0103564 12.08 0.0103564C13.6533 0.0103564 14.9133 0.227794 15.86 0.66267C16.8067 1.09755 17.5067 1.73951 17.96 2.58855C18.7333 1.73951 19.7133 1.09755 20.9 0.66267C22.0867 0.227794 23.3733 0.0103564 24.76 0.0103564C27.2933 0.0103564 29.04 0.564306 30 1.6722C30.96 2.7801 31.44 4.37982 31.44 6.47137V15.8523H25.36V7.65175C25.36 6.92695 25.3067 6.26429 25.2 5.66374C25.0933 5.0632 24.8267 4.58173 24.4 4.21933C23.9733 3.85694 23.2667 3.67574 22.28 3.67574C21.0533 3.67574 20.16 4.01225 19.6 4.68527C19.04 5.35829 18.76 6.36783 18.76 7.71387V15.8523H12.64V7.65175C12.64 6.92695 12.5933 6.26429 12.5 5.66374C12.4067 5.0632 12.1533 4.58173 11.74 4.21933C11.3267 3.85694 10.64 3.67574 9.68 3.67574C8.42667 3.67574 7.51333 4.02778 6.94 4.73187C6.36667 5.43595 6.08 6.46102 6.08 7.80706ZM50.06 15.3863C48.5 15.9455 46.9067 16.225 45.28 16.225C43.1467 16.225 41.26 15.8989 39.62 15.2465C37.98 14.5942 36.7 13.6572 35.78 12.4354C34.86 11.2136 34.4 9.75365 34.4 8.05556C34.4 6.4196 34.8867 5.00107 35.86 3.79999C36.8333 2.5989 38.1267 1.66703 39.74 1.00436C41.3533 0.34169 43.12 0.0103564 45.04 0.0103564C47.2267 0.0103564 49.1 0.408993 50.66 1.20626C52.22 2.00354 53.4 3.10108 54.2 4.4989C55 5.89671 55.3333 7.50679 55.2 9.32913H40.52C40.6267 10.406 41.14 11.2136 42.06 11.752C42.98 12.2904 44 12.5596 45.12 12.5596C46.0533 12.5596 46.86 12.4509 47.54 12.2335C48.22 12.016 48.7467 11.7417 49.12 11.4103L53.96 12.7771C52.92 13.9574 51.62 14.8272 50.06 15.3863ZM49.56 6.53349H40.52C40.7067 5.47736 41.2467 4.71115 42.14 4.23486C43.0333 3.75856 44.0533 3.52042 45.2 3.52042C46.3733 3.52042 47.3867 3.7741 48.24 4.28145C49.0933 4.78881 49.5333 5.53948 49.56 6.53349ZM64.16 7.80706V15.8523H58.08V0.445232H63.4L64.16 2.49536C64.6133 1.91553 65.36 1.3564 66.4 0.817983C67.44 0.279565 68.6934 0.0103564 70.16 0.0103564C71.7334 0.0103564 72.9933 0.227794 73.94 0.66267C74.8867 1.09755 75.5867 1.73951 76.04 2.58855C76.8133 1.73951 77.7934 1.09755 78.98 0.66267C80.1667 0.227794 81.4534 0.0103564 82.84 0.0103564C85.3734 0.0103564 87.12 0.564306 88.08 1.6722C89.04 2.7801 89.52 4.37982 89.52 6.47137V15.8523H83.44V7.65175C83.44 6.92695 83.3867 6.26429 83.28 5.66374C83.1733 5.0632 82.9067 4.58173 82.48 4.21933C82.0534 3.85694 81.3467 3.67574 80.36 3.67574C79.1334 3.67574 78.24 4.01225 77.68 4.68527C77.12 5.35829 76.84 6.36783 76.84 7.71387V15.8523H70.72V7.65175C70.72 6.92695 70.6733 6.26429 70.58 5.66374C70.4867 5.0632 70.2334 4.58173 69.82 4.21933C69.4067 3.85694 68.72 3.67574 67.76 3.67574C66.5067 3.67574 65.5934 4.02778 65.02 4.73187C64.4467 5.43595 64.16 6.46102 64.16 7.80706ZM103 16.225C104.813 16.225 106.52 15.9351 108.12 15.3553C109.72 14.7754 111.013 13.8798 112 12.6684C112.987 11.4569 113.48 9.92967 113.48 8.08662C113.48 6.22287 112.987 4.69563 112 3.50489C111.013 2.31416 109.72 1.43406 108.12 0.864577C106.52 0.295097 104.813 0.0103564 103 0.0103564C101.16 0.0103564 99.44 0.295097 97.84 0.864577C96.24 1.43406 94.9467 2.31416 93.96 3.50489C92.9733 4.69563 92.48 6.22287 92.48 8.08662C92.48 9.92967 92.9733 11.4569 93.96 12.6684C94.9467 13.8798 96.24 14.7754 97.84 15.3553C99.44 15.9351 101.16 16.225 103 16.225ZM99.92 11.5346C100.747 12.2179 101.773 12.5596 103 12.5596C104.227 12.5596 105.247 12.2179 106.06 11.5346C106.873 10.8512 107.28 9.70188 107.28 8.08662C107.28 6.45066 106.86 5.30652 106.02 4.65421C105.18 4.0019 104.173 3.67574 103 3.67574C101.8 3.67574 100.78 4.0019 99.94 4.65421C99.1 5.30652 98.68 6.45066 98.68 8.08662C98.68 9.70188 99.0933 10.8512 99.92 11.5346ZM138 20.4185C136.987 20.7084 135.613 20.8533 133.88 20.8533H131.92V17.4365H133.12C134.027 17.4365 134.707 17.4054 135.16 17.3433C135.613 17.2811 135.967 17.131 136.22 16.8929C136.473 16.6547 136.707 16.2768 136.92 15.7591L129.32 0.44523H135.84L139.72 10.0746L143.52 0.44523H150.04L142.44 15.8523C141.8 17.1569 141.153 18.1716 140.5 18.8964C139.847 19.6212 139.013 20.1285 138 20.4185Z" fill="#152938"/>
</svg>
